<svg width="512" height="512" viewBox="0 0 512 512" fill="none" xmlns="http://www.w3.org/2000/svg">
<path d="M256.9 64.2104C259.429 65.1614 261.185 66.442 263.316 68.1055C264.571 69.0752 264.571 69.0752 265.852 70.0644C266.746 70.7651 267.641 71.4657 268.562 72.1875C270.469 73.6615 272.377 75.1341 274.285 76.6055C275.726 77.718 275.726 77.718 277.196 78.853C281.255 81.9607 285.372 84.9846 289.5 88C297.128 93.5856 304.656 99.2928 312.164 105.039C317.899 109.421 323.678 113.735 329.5 118C337.127 123.587 344.656 129.293 352.164 135.039C357.899 139.421 363.678 143.735 369.5 148C377.127 153.587 384.656 159.293 392.164 165.039C397.899 169.421 403.678 173.735 409.5 178C417.127 183.587 424.656 189.293 432.164 195.039C437.899 199.421 443.678 203.735 449.5 208C457.121 213.582 464.645 219.284 472.146 225.026C478.827 230.13 485.576 235.133 492.357 240.102C498.985 244.967 505.515 249.947 512 255C510.628 258.224 509.231 259.867 506.387 261.891C505.273 262.695 505.273 262.695 504.137 263.516C503.328 264.088 502.52 264.66 501.688 265.25C499.951 266.504 498.215 267.759 496.48 269.016C495.577 269.669 494.674 270.321 493.744 270.994C489.276 274.26 484.89 277.631 480.5 281C473.114 286.655 465.668 292.215 458.164 297.711C452.223 302.073 446.352 306.521 440.5 311C433.114 316.654 425.668 322.215 418.164 327.711C412.223 332.073 406.352 336.521 400.5 341C393.114 346.654 385.668 352.215 378.164 357.711C372.223 362.073 366.352 366.521 360.5 371C353.114 376.654 345.668 382.215 338.164 387.711C332.223 392.073 326.352 396.521 320.5 401C313.881 406.067 307.225 411.074 300.5 416C293.631 421.032 286.83 426.146 280.062 431.312C279.177 431.986 278.291 432.659 277.379 433.353C273.618 436.217 269.87 439.088 266.184 442.047C265.359 442.698 265.359 442.698 264.517 443.362C263.128 444.461 261.751 445.576 260.375 446.691C257.346 448.36 256.266 447.945 253 447C251.082 445.823 251.082 445.823 249.242 444.332C248.544 443.776 247.847 443.22 247.128 442.647C246.384 442.042 245.641 441.436 244.875 440.812C243.256 439.523 241.634 438.235 240.012 436.949C239.181 436.29 238.35 435.63 237.494 434.951C233.622 431.922 229.659 429.021 225.688 426.125C218.898 421.16 212.179 416.113 205.5 411C197.994 405.256 190.433 399.598 182.812 394.008C177.195 389.886 171.613 385.72 166.046 381.529C160.995 377.733 155.908 373.987 150.812 370.25C143.084 364.577 135.45 358.789 127.837 352.962C122.102 348.58 116.323 344.265 110.5 340C102.873 334.413 95.3436 328.707 87.8359 322.961C82.101 318.579 76.3224 314.265 70.5 310C62.8726 304.413 55.3436 298.707 47.8359 292.961C41.3475 288.004 34.7933 283.144 28.2058 278.32C18.7048 271.344 9.35416 264.17 0 257C1.37196 253.776 2.7692 252.133 5.61328 250.109C6.72703 249.305 6.72703 249.305 7.86328 248.484C8.67152 247.912 9.47977 247.34 10.3125 246.75C12.0494 245.496 13.785 244.241 15.5195 242.984C16.4227 242.331 17.3258 241.679 18.2563 241.006C22.7238 237.74 27.1101 234.369 31.5 231C38.8856 225.345 46.332 219.785 53.8359 214.289C59.7767 209.927 65.6475 205.479 71.5 201C78.8864 195.346 86.3319 189.785 93.8359 184.289C99.7767 179.927 105.648 175.479 111.5 171C118.886 165.346 126.332 159.785 133.836 154.289C139.777 149.927 145.648 145.479 151.5 141C158.886 135.347 166.33 129.786 173.834 124.291C179.8 119.912 185.689 115.439 191.562 110.937C198.685 105.481 205.883 100.157 213.183 94.9399C219.125 90.6752 224.945 86.2618 230.75 81.8125C234.164 79.2052 237.581 76.6015 241 74C241.734 73.4396 242.469 72.8792 243.225 72.3018C245.161 70.8328 247.108 69.382 249.062 67.9375C249.616 67.5138 250.169 67.0901 250.739 66.6536C254.463 63.9405 254.463 63.9405 256.9 64.2104ZM160 172C160 227.44 160 282.88 160 340C176.17 340 192.34 340 209 340C209.513 299.761 209.513 299.761 208.125 259.562C208.047 258.344 207.968 257.126 207.887 255.871C207.293 247.858 206.222 239.94 205 232C205.66 232 206.32 232 207 232C207.112 232.604 207.224 233.209 207.339 233.831C208.528 240.033 210.043 246.067 211.797 252.131C212.071 253.089 212.344 254.046 212.626 255.032C213.52 258.161 214.42 261.287 215.32 264.414C215.946 266.597 216.57 268.78 217.195 270.963C218.832 276.681 220.474 282.399 222.117 288.116C223.796 293.96 225.47 299.806 227.145 305.652C230.425 317.103 233.711 328.552 237 340C249.54 340 262.08 340 275 340C281.145 320.231 286.771 300.329 292.355 280.396C293.687 275.639 295.026 270.884 296.366 266.129C297.404 262.443 298.439 258.756 299.472 255.068C299.965 253.312 300.459 251.556 300.954 249.8C301.64 247.369 302.32 244.936 303 242.503C303.306 241.423 303.306 241.423 303.618 240.322C304.416 237.446 305 235 305 232C305.66 232 306.32 232 307 232C306.914 232.666 306.829 233.332 306.74 234.018C302.289 269.33 302.908 304.455 303 340C319.17 340 335.34 340 352 340C352 284.56 352 229.12 352 172C330.22 172 308.44 172 286 172C281.246 188.64 281.246 188.64 276.5 205.281C274.564 212.074 272.628 218.866 270.687 225.657C269.12 231.135 267.558 236.614 265.999 242.094C265.404 244.179 264.809 246.264 264.212 248.349C263.373 251.28 262.539 254.212 261.706 257.144C261.46 257.996 261.215 258.849 260.962 259.727C259.348 265.437 258.085 271.167 257 277C256.34 277 255.68 277 255 277C254.877 276.003 254.754 275.005 254.627 273.977C254.058 270.015 253.063 266.207 251.962 262.363C251.757 261.633 251.552 260.903 251.341 260.151C250.665 257.752 249.983 255.355 249.301 252.957C248.823 251.266 248.346 249.575 247.868 247.884C246.867 244.337 245.862 240.791 244.855 237.245C243.581 232.761 242.313 228.276 241.046 223.79C240.058 220.291 239.069 216.793 238.078 213.295C237.611 211.646 237.145 209.996 236.678 208.346C233.239 196.192 229.63 184.101 226 172C204.22 172 182.44 172 160 172Z" fill="#F03B20"/>
</svg>
